<svg width="35" height="35" viewBox="0 0 35 35" fill="none" xmlns="http://www.w3.org/2000/svg">
<path d="M10.2087 26.2493C9.79546 26.2493 9.44911 26.1096 9.1696 25.8301C8.89008 25.5506 8.75033 25.2042 8.75033 24.791V21.8743H27.7087V8.74935H30.6253C31.0385 8.74935 31.3849 8.88911 31.6644 9.16862C31.9439 9.44813 32.0837 9.79449 32.0837 10.2077V28.5462C32.0837 29.2025 31.7859 29.6582 31.1904 29.9134C30.5949 30.1686 30.0663 30.0653 29.6045 29.6035L26.2503 26.2493H10.2087ZM8.75033 18.9577L5.39616 22.3118C4.93435 22.7737 4.40571 22.877 3.81022 22.6217C3.21474 22.3665 2.91699 21.9108 2.91699 21.2546V4.37435C2.91699 3.96115 3.05675 3.6148 3.33626 3.33529C3.61578 3.05577 3.96213 2.91602 4.37533 2.91602H23.3337C23.7469 2.91602 24.0932 3.05577 24.3727 3.33529C24.6522 3.6148 24.792 3.96115 24.792 4.37435V17.4993C24.792 17.9125 24.6522 18.2589 24.3727 18.5384C24.0932 18.8179 23.7469 18.9577 23.3337 18.9577H8.75033ZM21.8753 16.041V5.83268H5.83366V16.041H21.8753Z" fill="#2A2B2C"/>
</svg>
