<?xml version="1.0" encoding="UTF-8"?>
<svg id="Layer_1" xmlns="http://www.w3.org/2000/svg" viewBox="0 0 355.75 139.03">
  <defs>
    <style>
      .cls-1 {
        fill: #25e2cc;
      }

      .cls-2 {
        fill: #003d5b;
      }

      .cls-3 {
        fill: #003d5b;
      }
    </style>
  </defs>
  <g>
    <g>
      <path class="cls-3" d="M158.31,40.39v67.38h-7.03v-31.09h-42.16v31.09h-7.12V40.39h7.12v30.03h42.16v-30.03h7.03Z"/>
      <path class="cls-3" d="M219.26,84.57h-42.35c.77,10.59,8.85,17.61,19.92,17.61,6.16,0,11.65-2.21,15.5-6.64l3.85,4.43c-4.52,5.39-11.55,8.28-19.54,8.28-15.79,0-26.57-10.78-26.57-25.8s10.49-25.7,24.74-25.7,24.54,10.49,24.54,25.7c0,.58-.1,1.35-.1,2.12ZM176.91,79.47h35.9c-.87-9.91-8.08-16.84-18-16.84s-17.04,6.93-17.9,16.84Z"/>
      <path class="cls-3" d="M229.23,36.35h6.83v71.42h-6.83V36.35Z"/>
      <path class="cls-3" d="M249.86,36.35h6.83v71.42h-6.83V36.35Z"/>
      <path class="cls-3" d="M266.64,82.45c0-15.02,10.97-25.7,25.8-25.7s25.7,10.68,25.7,25.7-10.88,25.8-25.7,25.8-25.8-10.78-25.8-25.8ZM311.21,82.45c0-11.84-7.99-19.73-18.77-19.73s-18.87,7.89-18.87,19.73,8.09,19.73,18.87,19.73,18.77-7.89,18.77-19.73Z"/>
    </g>
    <path class="cls-3" d="M13.83,57.12h14.42v50.64h-14.42v-50.64Z"/>
    <path class="cls-3" d="M70.9,107.77l-10.57-16.07-10.57,16.07h-16.51l18.17-25.43-17.28-25.21h16.73l9.8,15.52,10.24-15.52h16.4l-17.95,24.88,18.5,25.76h-16.95Z"/>
    <g>
      <rect class="cls-1" x="13.41" y="30.96" width="37.89" height="18.94" rx="9.47" ry="9.47"/>
      <circle class="cls-3" cx="41.82" cy="40.43" r="9.47"/>
    </g>
  </g>
  <g>
    <polygon class="cls-2" points="322.11 47.26 322.11 37.9 318.14 37.9 318.14 36.35 327.98 36.35 327.98 37.9 324 37.9 324 47.26 322.11 47.26"/>
    <polygon class="cls-2" points="342.34 47.26 342.32 36.35 340.76 36.35 336 43.81 331.13 36.35 329.58 36.35 329.58 47.26 331.4 47.26 331.4 39.74 335.53 45.98 336.4 45.98 340.5 39.6 340.53 47.26 342.34 47.26"/>
  </g>
</svg>